<svg width="26" height="26" viewBox="0 0 26 26" fill="none" xmlns="http://www.w3.org/2000/svg">
<circle cx="13" cy="13" r="12.5" stroke="#7045C4"/>
<path fill-rule="evenodd" clip-rule="evenodd" d="M11.9898 3.99938C10.8699 3.92825 10.0165 4.84213 10.0164 5.8772L10.0158 12.7867L8.55991 12.7865C7.98553 12.7865 7.51985 13.252 7.51978 13.8264C7.5197 14.4008 7.98527 14.8665 8.55964 14.8665L10.0157 14.8667L10.0153 16.084H8.57327C7.9989 16.084 7.53328 16.5496 7.53328 17.124C7.53328 17.6984 7.9989 18.164 8.57327 18.164H10.0145L10.0134 20.958C10.0132 21.5323 10.4786 21.9981 11.053 21.9984C11.6274 21.9986 12.0932 21.5331 12.0934 20.9588L12.0945 18.164H15.3983C15.9727 18.164 16.4383 17.6984 16.4383 17.124C16.4383 16.5496 15.9727 16.084 15.3983 16.084H12.0953L12.0958 14.8412C13.7362 14.7159 15.2157 14.1932 16.3458 13.3439C17.7311 12.3027 18.5969 10.753 18.47 8.94165C18.3634 7.41976 17.6252 6.1979 16.4323 5.35708C15.2729 4.53991 13.7296 4.10987 11.9898 3.99938ZM12.0966 12.7536C13.3271 12.6344 14.3589 12.2352 15.0961 11.6811C16.013 10.992 16.4649 10.0833 16.3951 9.08701C16.3343 8.21959 15.9417 7.55604 15.234 7.05723C14.5323 6.56268 13.4848 6.21027 12.0964 6.09282L12.0964 6.14926C12.0982 6.17441 12.0991 6.19982 12.0991 6.22543L12.0966 12.7536Z" fill="#7045C4"/>
</svg>
